<svg width="688" height="628" viewBox="0 0 688 628" fill="none" xmlns="http://www.w3.org/2000/svg">
<path opacity="0.4" d="M624.607 79.4102C479.832 10.5175 415.969 198.909 316.138 229.906C216.394 275.253 120.215 222.176 60.8283 267.674C-33.3064 339.794 8.01039 465.963 68.2737 519.05C154.694 595.18 308.272 567.78 467.012 485.462C665.894 382.329 751.55 139.817 624.607 79.4102Z" fill="#98C3E8"/>
<path opacity="0.2" d="M143.5 154.5C148.5 167 133.5 186.5 112 193C93.4998 198.593 75.4998 198 70.4998 185C66.0767 173.5 79.9998 161 95.9998 154.5C112 148 138.5 142 143.5 154.5Z" fill="#98C3E8"/>
<path opacity="0.2" d="M307 129C303.109 119.06 316.816 95.8658 333.802 90.7986C348.419 86.4383 362.111 76.1637 366 86.5C369.44 95.6437 358.909 116.325 346.26 121.415C333.612 126.505 310.891 138.94 307 129Z" fill="#98C3E8"/>
<path opacity="0.2" d="M295.792 621.215C291.901 611.276 303.816 595.866 320.802 590.799C335.419 586.438 349.614 586.985 353.503 597.321C356.944 606.465 345.908 616.325 333.26 621.415C320.612 626.505 299.684 631.155 295.792 621.215Z" fill="#98C3E8"/>
<path opacity="0.2" d="M471.573 570.55C463.478 551.52 489.279 509.235 524.573 499.55C554.942 491.216 603.982 508.26 612.072 528.05C619.229 545.555 572.353 542.66 546.074 552.393C519.795 562.126 479.667 589.579 471.573 570.55Z" fill="#98C3E8"/>
<mask id="mask0_0_1548" style="mask-type:alpha" maskUnits="userSpaceOnUse" x="20" y="68" width="648" height="490">
<path d="M606.962 80.9443C466.39 18.869 410.042 201.479 315.141 234.024C220.694 280.339 127.118 232.084 71.3641 277.416C-17.0125 349.272 25.8608 469.217 85.0062 518.486C169.824 589.139 316.342 558.544 466.39 475.093C654.38 370.539 730.22 135.374 606.962 80.9443Z" fill="#98C3E8"/>
</mask>
<g mask="url(#mask0_0_1548)">
<rect x="-85.083" y="-12.5983" width="805.162" height="681.485" fill="url(#paint0_linear_0_1548)"/>
<path d="M16.5085 204.467C90.336 241.697 172.998 345.904 172.998 395.662C172.998 456.869 43.221 550.678 -16.3037 603.893L491.655 636.705C473.566 555.726 427.894 375.7 455.688 335.716C491.655 283.974 637.207 296.594 718.816 306.059L740.902 75.7424C701.148 92.3588 612.177 140.105 563.589 127.485C518.615 115.803 432.34 65.4359 395.742 33.4651" stroke="white" stroke-opacity="0.2" stroke-width="15"/>
<path d="M206.441 147.677C226.634 252.844 281.531 445.637 339.583 375.469C412.149 287.76 469.57 174.179 523.837 249.269C567.25 309.34 631.107 427.843 657.61 479.585" stroke="white" stroke-opacity="0.2" stroke-width="15"/>
<path fill-rule="evenodd" clip-rule="evenodd" d="M434 209C434 213.418 430.418 217 426 217C421.582 217 418 213.418 418 209C418 204.582 421.582 201 426 201C430.418 201 434 204.582 434 209ZM103 382C107.418 382 111 378.418 111 374C111 369.582 107.418 366 103 366C98.5817 366 95 369.582 95 374C95 378.418 98.5817 382 103 382ZM277 484C281.418 484 285 480.418 285 476C285 471.582 281.418 468 277 468C272.582 468 269 471.582 269 476C269 480.418 272.582 484 277 484ZM551 366C555.418 366 559 362.418 559 358C559 353.582 555.418 350 551 350C546.582 350 543 353.582 543 358C543 362.418 546.582 366 551 366Z" fill="white" fill-opacity="0.6"/>
<circle cx="73" cy="461" r="18" stroke="white" stroke-opacity="0.4" stroke-width="8"/>
<circle cx="653" cy="184" r="18" stroke="white" stroke-opacity="0.4" stroke-width="8"/>
<circle cx="403" cy="417" r="18" stroke="white" stroke-opacity="0.4" stroke-width="8"/>
</g>
<g filter="url(#filter0_d_0_1548)">
<rect x="453" y="138" width="88" height="88" rx="10" fill="white"/>
</g>
<g clip-path="url(#clip0_0_1548)">
<path d="M493 198V186H501V198H511V182H517L497 164L477 182H483V198H493Z" fill="#5A98D0"/>
</g>
<g filter="url(#filter1_d_0_1548)">
<path d="M440.423 10H412.992C409.207 10 406.139 12.9797 406.139 16.6554V43.2918C406.139 46.9674 409.207 49.9471 412.992 49.9471H440.423C444.208 49.9471 447.277 46.9674 447.277 43.2918V16.6554C447.277 12.9797 444.208 10 440.423 10Z" fill="#56CCF2"/>
</g>
<g clip-path="url(#clip1_0_1548)">
<path d="M437 28.5773H432.83L436.07 25.4094L434.66 24.021L430 28.5773H428V26.6218L432.66 22.0655L431.24 20.6868L428 23.8548V19.7775H426V23.8548L422.76 20.6868L421.34 22.0655L426 26.6218V28.5773H424L419.34 24.021L417.93 25.4094L421.17 28.5773H417V30.5328H421.17L417.93 33.7007L419.34 35.0891L424 30.5328H426V32.4883L421.34 37.0446L422.76 38.4232L426 35.2553V39.3326H428V35.2553L431.24 38.4232L432.66 37.0446L428 32.4883V30.5328H430L434.66 35.0891L436.07 33.7007L432.83 30.5328H437V28.5773Z" fill="white"/>
</g>
<g filter="url(#filter2_d_0_1548)">
<path d="M614.284 110.708H586.854C583.069 110.708 580 113.688 580 117.364V144C580 147.676 583.069 150.655 586.854 150.655H614.284C618.07 150.655 621.138 147.676 621.138 144V117.364C621.138 113.688 618.07 110.708 614.284 110.708Z" fill="#F2C94C"/>
</g>
<path d="M610 127.33C610 122.441 606 118.53 601 118.53C596 118.53 592 122.441 592 127.33C592 130.361 593.6 133.099 596 134.663V137.108C596 138.379 596.8 139.454 598 139.845V140.041C598 141.703 599.3 142.974 601 142.974C602.7 142.974 604 141.703 604 140.041V139.845C605.2 139.454 606 138.379 606 137.108V134.663C608.4 133.099 610 130.361 610 127.33ZM594 127.33C594 123.517 597.1 120.486 601 120.486C604.9 120.486 608 123.517 608 127.33C608 130.752 605.4 133.588 602 134.077V131.632L603.7 129.97C604.1 129.579 604.1 128.992 603.7 128.601C603.3 128.21 602.7 128.21 602.3 128.601L601 129.872L599.7 128.601C599.3 128.21 598.7 128.21 598.3 128.601C597.9 128.992 597.9 129.579 598.3 129.97L600 131.632V134.077C596.6 133.588 594 130.752 594 127.33ZM601 141.019C600.4 141.019 600 140.628 600 140.041H602C602 140.628 601.6 141.019 601 141.019ZM604 137.108C604 137.694 603.6 138.085 603 138.085H599C598.4 138.085 598 137.694 598 137.108V135.641C598.9 135.934 599.9 136.13 601 136.13C602.1 136.13 603.1 135.934 604 135.641V137.108Z" fill="white"/>
<g filter="url(#filter3_d_0_1548)">
<path d="M394.284 110.708H366.854C363.069 110.708 360 113.688 360 117.364V144C360 147.676 363.069 150.655 366.854 150.655H394.284C398.07 150.655 401.138 147.676 401.138 144V117.364C401.138 113.688 398.07 110.708 394.284 110.708Z" fill="#F58A8A"/>
</g>
<path d="M387 126.352H386V124.397C386 121.698 383.76 119.508 381 119.508C378.24 119.508 376 121.698 376 124.397V126.352H375C373.9 126.352 373 127.232 373 128.308V138.085C373 139.161 373.9 140.041 375 140.041H387C388.1 140.041 389 139.161 389 138.085V128.308C389 127.232 388.1 126.352 387 126.352ZM381 135.152C379.9 135.152 379 134.272 379 133.197C379 132.121 379.9 131.241 381 131.241C382.1 131.241 383 132.121 383 133.197C383 134.272 382.1 135.152 381 135.152ZM384.1 126.352H377.9V124.397C377.9 122.725 379.29 121.366 381 121.366C382.71 121.366 384.1 122.725 384.1 124.397V126.352Z" fill="white"/>
<g filter="url(#filter4_d_0_1548)">
<path d="M568.284 10H540.854C537.069 10 534 12.9797 534 16.6554V43.2918C534 46.9674 537.069 49.9471 540.854 49.9471H568.284C572.07 49.9471 575.138 46.9674 575.138 43.2918V16.6554C575.138 12.9797 572.07 10 568.284 10Z" fill="#6FCF97"/>
</g>
<path d="M560.311 24.565H543.979V34.5447H560.311V24.565Z" fill="white"/>
<path d="M564.713 26.5509L561.108 28.0323V31.1196L564.713 32.601H566.02V26.5509H564.713Z" fill="white"/>
<path d="M500.39 221C499.274 225.364 500.787 227.88 501.978 228.5C504.34 229.73 506.977 231.27 506.977 231.27C506.977 231.27 523.406 259.414 528.168 261.429C533.724 263.778 546.422 265 546.422 265L551.978 253.889C551.978 253.889 539.279 251.111 533.724 249.921C529.98 249.118 513.486 231.27 513.486 231.27L516.66 225.714H510.708C506.343 222.54 503.977 216 503.977 216C503.977 216 501.153 218.02 500.39 221Z" fill="url(#paint1_linear_0_1548)"/>
<path d="M565.478 271.5C563.478 269.5 551.978 266.333 546.478 265L551.978 254C554.144 254 560.478 253.5 568.478 251.5C578.478 249 581.978 240 593.478 249.5C602.678 257.1 618.644 290.333 625.478 306C614.731 316.243 607.594 319.569 593.478 322.5C592.644 320.833 590.178 315.2 586.978 306C582.978 294.5 570.478 294.5 568.478 290.5C566.478 286.5 567.978 274 565.478 271.5Z" fill="url(#paint2_linear_0_1548)"/>
<path d="M601.478 385C597.878 377 597.811 339 596.478 321.5C608.671 319.103 615.111 316.016 625.478 305.5C625.478 305.5 642.478 313.5 641.478 332C640.478 350.5 647.998 359.841 652.478 366C656.478 371.5 665.978 383.167 670.978 391L665.978 400.5C660.478 394.667 644.378 382.8 635.978 376C627.578 369.2 624.811 352.167 623.478 343C622.644 352.667 618.478 370.4 620.478 376C622.478 381.6 643.978 398.5 652.478 407L649.478 415.5C634.978 408.667 605.078 393 601.478 385Z" fill="url(#paint3_linear_0_1548)"/>
<path d="M559.477 237.5C559.877 235.9 559.311 231.167 559.978 229.5C564.778 230.3 567.477 233.667 568.477 235C569.477 234.833 570.912 234.369 571.477 235.5C571.977 236.5 571.477 238.5 569.977 240L573.477 249.5C571.819 250.577 570.809 250.939 568.977 251.5C569.977 249 569.477 247 568.977 246C565.377 248.8 563.977 248.667 562.477 248.5L560.977 242L558.478 242.5C558.978 241.667 559.077 239.1 559.477 237.5Z" fill="url(#paint4_linear_0_1548)"/>
<path d="M568.477 235C566.477 232.2 561.644 230.167 559.477 229.5C555.477 226.5 557.477 220 566.977 217C576.477 214 580.477 222 582.477 224C584.477 226 585.477 232.5 594.477 236.5C603.477 240.5 602.977 235.5 608.477 235.5C613.977 235.5 616.477 239 615.477 242C614.477 245 613.977 248.5 619.977 252.5C625.977 256.5 620.477 262 619.977 268C619.477 274 611.477 271 602.977 271C594.477 271 595.977 271 594.477 265.5C592.977 260 590.477 258 587.477 256.5C584.477 255 577.477 256 575.977 254.5C574.777 253.3 571.477 244.333 569.977 240C570.644 239 571.877 236.7 571.477 235.5C571.077 234.3 569.31 234.667 568.477 235Z" fill="#F2994A"/>
<path d="M549.478 295.5L573.478 294C576.278 294.4 580.978 297.833 582.978 299.5C582.311 301 580.378 304 577.978 304C575.578 304 557.978 301 549.478 299.5H547.478V292L549.478 295.5Z" fill="url(#paint5_linear_0_1548)"/>
<path d="M547.478 303V286H538.978V303H547.478Z" fill="#F2C94C"/>
<path d="M665.978 429.5C663.578 429.1 653.811 419.833 649.478 415.5L652.478 407C654.478 407.833 658.678 409.3 659.478 410.5C660.478 412 668.978 430 665.978 429.5Z" fill="#5A98D0"/>
<path d="M677.978 418.5C676.778 416.5 669.478 406.833 665.978 400.5L670.978 391C673.311 393 673.478 393 675.978 396.5C677.14 398.127 679.478 421 677.978 418.5Z" fill="#5A98D0"/>
<path opacity="0.2" d="M626.478 328.5L623.478 343.5C623.978 349 626.978 362.5 631.978 372C625.978 353 627.978 338.833 626.478 328.5Z" fill="black"/>
<path d="M196 553L194.5 548L202.5 546.5C206.333 548.5 213.7 552.9 212.5 554.5C212.1 555.3 201.333 553.833 196 553Z" fill="#D06262"/>
<path d="M155.5 506L160 513.5C159.667 518.667 158.6 528.8 157 528C155.4 527.2 150.333 514.333 148 508L155.5 506Z" fill="#D06262"/>
<path d="M129.328 460.993C123.999 455.458 119.156 445.024 117.401 440.5C122.529 438.019 133.924 432.352 138.484 429.522C143.044 426.693 151.693 420.274 155.447 417.418C157.637 419.392 164.01 424.262 171.981 427.948C192.452 437.613 204.145 450.095 208.185 461.272C211.418 470.213 198.175 483.449 190.651 488.994C186.292 481.586 183.669 478.59 178.501 471.534L180.257 463.338L169.933 460.271C171.459 462.307 176.461 469.01 184.258 479.54C198.328 497.125 203.2 527.172 203.878 539.997C201.253 540.573 194.79 541.636 189.937 541.279C189.364 535.05 181.559 521.211 174.106 508.959C172.59 510.773 170.489 512.942 169.265 513.054C163.07 511.214 161.151 503.089 160.966 499.256L165.648 495.335C165.006 494.31 164.406 493.349 163.856 492.463C156.193 480.113 135.99 467.912 129.328 460.993Z" fill="#1F3F68"/>
<path d="M157.347 416.239C142.813 427.451 112.728 447.557 108.662 438.291C103.58 426.708 104.576 426.616 101.766 423.36C98.9555 420.103 98.2686 412.635 96.998 409.739C96.3594 408.284 91.211 401.917 87.0954 394.08C87.0954 394.08 86.9717 393.853 86.7625 393.439C83.8406 387.737 81.5329 381.32 81.9125 375.477C82.2029 366.914 88.7162 361.391 88.7162 361.391C92.5981 357.253 96.2389 356.558 97.5 356.669L97.5233 356.685C100.558 358.749 105.045 361.8 106.634 361.654C108.228 361.508 110.5 358.5 112 357C119.606 357.807 121.929 355.859 127.874 356.669C135.205 357.669 155 368 170.5 340.5C172.04 340.861 175.511 342.229 178 342C169.5 367 162 374.781 155 377.231C149.628 379.112 145.395 379.636 142.052 379.602C141.438 382.863 140.623 388.224 139.263 393.691C142.058 398.807 145.012 403.505 147.332 405.612C153.358 411.083 160.163 414.102 157.347 416.239Z" fill="white"/>
<path d="M157.062 445.89L170.477 460.723L180.258 463.338L179.674 467.911C181.919 465.027 184.797 458.101 178.346 453.472C171.895 448.844 161.469 446.489 157.062 445.89Z" fill="black" fill-opacity="0.2"/>
<path d="M165.625 495.313L173.923 509.111L172.567 510.742C171.342 508.344 168.126 506.129 165.408 503.869C163.233 502.061 162.777 498.922 162.821 497.579L165.625 495.313Z" fill="black" fill-opacity="0.2"/>
<path d="M127.067 420.028C112.87 418.522 95.6038 403.675 88.7456 396.439C104.604 410.546 123.032 414.374 128.87 412.331C133.54 410.696 137.12 398.527 139.001 393.5L142.799 400.003C143.471 407.306 141.265 421.534 127.067 420.028Z" fill="black" fill-opacity="0.2"/>
<path d="M121.967 391.877C118.82 392.452 110.674 385.551 107.019 382.206C120.474 392.014 120.5 387 137.5 375C136.762 376.072 129.5 390.5 121.967 391.877Z" fill="black" fill-opacity="0.2"/>
<path d="M142.5 377.5C140.787 377.156 139.296 376.576 137.5 375L139 371.5C138.833 370.667 138.6 368.8 139 368C139.4 367.2 141 366.333 141.5 366L141 368.5L143.5 365.5L147.5 369L147 372.5L144 374L142.5 377.5Z" fill="#F2994A"/>
<path d="M179 337L178 342C176.4 342.4 172.167 341.167 170.5 340.5C171 339 172.6 335 173 333C173.4 331 177.167 328.833 179 328H181L179 331.5V337Z" fill="#F2994A"/>
<path d="M94.9997 346.5C95.7997 348.1 97.9997 351.5 98.9997 353C99.6664 351.667 100.6 348.7 98.9997 347.5C97.3997 346.3 95.9997 344.333 95.4998 343.5C95.9998 343.167 97.2998 342.5 98.4998 342.5C97.6998 336.5 101.833 334.333 104 334L112.5 333.5L113 336C116.166 333 121.9 326.5 119.5 324.5C116.5 322 107.5 328.5 101.5 328.5C95.4998 328.5 92.9997 331.5 91.4997 334.5C89.9997 337.5 93.9997 344.5 94.9997 346.5Z" fill="#316099"/>
<path d="M106.5 362C104.9 362 100.333 358.833 97.5 357C98.8333 356.333 99.5 353.8 99.5 353C99.5 352 100.5 348 99.5 347.5C98.5 347 95.5 345 95.5 344C95.5 343.2 97.5 343 98.5 343C98.1667 341.333 98.1 337.5 100.5 335.5C102.9 333.5 109.5 333.333 112.5 333.5C112.667 334.167 113.3 337 114.5 343C115.7 349 113 351.833 111.5 352.5L112 357C110.833 358.5 108.1 362 106.5 362Z" fill="#F2994A"/>
<path d="M202.5 546.5L202 540.5C198.469 541.446 196.371 541.613 192.5 541.5L194.5 548L202.5 546.5Z" fill="#98C3E8"/>
<path d="M160 513.5L166 511.5C163.322 508.423 162.421 506.668 161.5 503.5L155.5 506L160 513.5Z" fill="#98C3E8"/>
<rect opacity="0.8" x="187" y="266" width="266.284" height="189.301" rx="5" fill="url(#paint6_linear_0_1548)"/>
<path d="M187 271C187 268.239 189.239 266 192 266H263.983V455.301H192C189.239 455.301 187 453.063 187 450.301V271Z" fill="white"/>
<circle cx="199" cy="278" r="4" fill="#FA9595"/>
<circle cx="212" cy="278" r="4" fill="#FDF397"/>
<circle cx="224" cy="278" r="4" fill="#C1FEBB"/>
<path opacity="0.4" fill-rule="evenodd" clip-rule="evenodd" d="M196 372H254V379H196V372ZM196 386H254V393H196V386ZM235 402H196V409H235V402Z" fill="#5A98D0"/>
<path opacity="0.1" fill-rule="evenodd" clip-rule="evenodd" d="M373 291H431V298H373V291ZM373 305H431V312H373V305ZM412 321H373V328H412V321Z" fill="black"/>
<g filter="url(#filter5_d_0_1548)">
<rect x="179" y="292" width="81" height="50" rx="5" fill="#56CCF2"/>
</g>
<path d="M203.344 314.136C202.688 313.24 201.76 312.792 200.544 312.792C199.44 312.792 198.512 313.192 197.728 314.008C196.944 314.824 196.56 315.816 196.56 317C196.56 318.168 196.944 319.176 197.728 319.992C198.512 320.808 199.44 321.208 200.544 321.208C201.76 321.208 202.688 320.76 203.344 319.848V321H205.072V313H203.344V314.136ZM199.008 318.84C198.528 318.344 198.288 317.736 198.288 317C198.288 316.264 198.528 315.656 199.008 315.176C199.488 314.68 200.096 314.44 200.816 314.44C201.536 314.44 202.144 314.68 202.624 315.176C203.104 315.656 203.344 316.264 203.344 317C203.344 317.736 203.104 318.344 202.624 318.84C202.144 319.32 201.536 319.56 200.816 319.56C200.096 319.56 199.488 319.32 199.008 318.84ZM212.078 309.592C209.71 309.448 208.462 310.648 208.462 312.84V313H207.246V314.664H208.462V321H210.19V314.664H212.078V313H210.19V312.84C210.19 311.672 210.814 311.144 212.078 311.256V309.592ZM215.617 313H213.889V321H215.617V316.968C215.617 316.152 215.857 315.56 216.353 315.208C216.849 314.84 217.425 314.68 218.081 314.728V312.856C216.881 312.856 216.049 313.352 215.617 314.344V313ZM221.79 311.48C222.238 311.032 222.238 310.36 221.806 309.928C221.374 309.48 220.67 309.48 220.238 309.928C219.806 310.36 219.806 311.032 220.238 311.48C220.686 311.912 221.358 311.912 221.79 311.48ZM221.886 321V313H220.158V321H221.886ZM231.028 314.136C230.372 313.24 229.444 312.792 228.228 312.792C227.124 312.792 226.196 313.192 225.412 314.008C224.628 314.824 224.244 315.816 224.244 317C224.244 318.168 224.628 319.176 225.412 319.992C226.196 320.808 227.124 321.208 228.228 321.208C229.444 321.208 230.372 320.76 231.028 319.848V321H232.756V313H231.028V314.136ZM226.692 318.84C226.212 318.344 225.972 317.736 225.972 317C225.972 316.264 226.212 315.656 226.692 315.176C227.172 314.68 227.78 314.44 228.5 314.44C229.22 314.44 229.828 314.68 230.308 315.176C230.788 315.656 231.028 316.264 231.028 317C231.028 317.736 230.788 318.344 230.308 318.84C229.828 319.32 229.22 319.56 228.5 319.56C227.78 319.56 227.172 319.32 226.692 318.84ZM239.779 312.792C238.643 312.792 237.827 313.208 237.299 314.024V313H235.571V321H237.299V316.712C237.299 315.16 238.115 314.408 239.331 314.408C240.435 314.408 241.123 315.064 241.123 316.264V321H242.851V316.088C242.851 314.04 241.619 312.792 239.779 312.792Z" fill="white"/>
<rect x="281" y="284" width="79" height="77" rx="5" fill="#EB5757"/>
<g clip-path="url(#clip2_0_1548)">
<path d="M312 309V337L334 323L312 309Z" fill="white"/>
</g>
<g filter="url(#filter6_d_0_1548)">
<rect x="281" y="374" width="154" height="63" rx="5" fill="#6FCF97"/>
</g>
<path d="M294.5 419C304 412.5 308 404 326 404C344 404 345.58 414 356.5 414C369.5 414 382 394.5 396 394.5C410 394.5 413.5 404.5 421 405" stroke="black" stroke-opacity="0.1" stroke-width="2" stroke-linecap="round" stroke-linejoin="round"/>
<path d="M294 419.5C303.5 413 306 394 324 394C342 394 346.08 410.5 357 410.5C370 410.5 381.5 383.5 395.5 383.5C409.5 383.5 414 404.5 421.5 405" stroke="white" stroke-width="2" stroke-linecap="round" stroke-linejoin="round"/>
<defs>
<filter id="filter0_d_0_1548" x="403" y="88" width="188" height="188" filterUnits="userSpaceOnUse" color-interpolation-filters="sRGB">
<feFlood flood-opacity="0" result="BackgroundImageFix"/>
<feColorMatrix in="SourceAlpha" type="matrix" values="0 0 0 0 0 0 0 0 0 0 0 0 0 0 0 0 0 0 127 0" result="hardAlpha"/>
<feOffset/>
<feGaussianBlur stdDeviation="25"/>
<feColorMatrix type="matrix" values="0 0 0 0 0.0627451 0 0 0 0 0.439216 0 0 0 0 0.694118 0 0 0 0.25 0"/>
<feBlend mode="normal" in2="BackgroundImageFix" result="effect1_dropShadow_0_1548"/>
<feBlend mode="normal" in="SourceGraphic" in2="effect1_dropShadow_0_1548" result="shape"/>
</filter>
<filter id="filter1_d_0_1548" x="396.139" y="0" width="71.1387" height="69.9471" filterUnits="userSpaceOnUse" color-interpolation-filters="sRGB">
<feFlood flood-opacity="0" result="BackgroundImageFix"/>
<feColorMatrix in="SourceAlpha" type="matrix" values="0 0 0 0 0 0 0 0 0 0 0 0 0 0 0 0 0 0 127 0" result="hardAlpha"/>
<feOffset dx="5" dy="5"/>
<feGaussianBlur stdDeviation="7.5"/>
<feColorMatrix type="matrix" values="0 0 0 0 0 0 0 0 0 0 0 0 0 0 0 0 0 0 0.15 0"/>
<feBlend mode="normal" in2="BackgroundImageFix" result="effect1_dropShadow_0_1548"/>
<feBlend mode="normal" in="SourceGraphic" in2="effect1_dropShadow_0_1548" result="shape"/>
</filter>
<filter id="filter2_d_0_1548" x="570" y="100.708" width="71.1387" height="69.9471" filterUnits="userSpaceOnUse" color-interpolation-filters="sRGB">
<feFlood flood-opacity="0" result="BackgroundImageFix"/>
<feColorMatrix in="SourceAlpha" type="matrix" values="0 0 0 0 0 0 0 0 0 0 0 0 0 0 0 0 0 0 127 0" result="hardAlpha"/>
<feOffset dx="5" dy="5"/>
<feGaussianBlur stdDeviation="7.5"/>
<feColorMatrix type="matrix" values="0 0 0 0 0 0 0 0 0 0 0 0 0 0 0 0 0 0 0.15 0"/>
<feBlend mode="normal" in2="BackgroundImageFix" result="effect1_dropShadow_0_1548"/>
<feBlend mode="normal" in="SourceGraphic" in2="effect1_dropShadow_0_1548" result="shape"/>
</filter>
<filter id="filter3_d_0_1548" x="350" y="100.708" width="71.1387" height="69.9471" filterUnits="userSpaceOnUse" color-interpolation-filters="sRGB">
<feFlood flood-opacity="0" result="BackgroundImageFix"/>
<feColorMatrix in="SourceAlpha" type="matrix" values="0 0 0 0 0 0 0 0 0 0 0 0 0 0 0 0 0 0 127 0" result="hardAlpha"/>
<feOffset dx="5" dy="5"/>
<feGaussianBlur stdDeviation="7.5"/>
<feColorMatrix type="matrix" values="0 0 0 0 0 0 0 0 0 0 0 0 0 0 0 0 0 0 0.15 0"/>
<feBlend mode="normal" in2="BackgroundImageFix" result="effect1_dropShadow_0_1548"/>
<feBlend mode="normal" in="SourceGraphic" in2="effect1_dropShadow_0_1548" result="shape"/>
</filter>
<filter id="filter4_d_0_1548" x="524" y="0" width="71.1387" height="69.9471" filterUnits="userSpaceOnUse" color-interpolation-filters="sRGB">
<feFlood flood-opacity="0" result="BackgroundImageFix"/>
<feColorMatrix in="SourceAlpha" type="matrix" values="0 0 0 0 0 0 0 0 0 0 0 0 0 0 0 0 0 0 127 0" result="hardAlpha"/>
<feOffset dx="5" dy="5"/>
<feGaussianBlur stdDeviation="7.5"/>
<feColorMatrix type="matrix" values="0 0 0 0 0 0 0 0 0 0 0 0 0 0 0 0 0 0 0.15 0"/>
<feBlend mode="normal" in2="BackgroundImageFix" result="effect1_dropShadow_0_1548"/>
<feBlend mode="normal" in="SourceGraphic" in2="effect1_dropShadow_0_1548" result="shape"/>
</filter>
<filter id="filter5_d_0_1548" x="174" y="287" width="101" height="70" filterUnits="userSpaceOnUse" color-interpolation-filters="sRGB">
<feFlood flood-opacity="0" result="BackgroundImageFix"/>
<feColorMatrix in="SourceAlpha" type="matrix" values="0 0 0 0 0 0 0 0 0 0 0 0 0 0 0 0 0 0 127 0" result="hardAlpha"/>
<feOffset dx="5" dy="5"/>
<feGaussianBlur stdDeviation="5"/>
<feColorMatrix type="matrix" values="0 0 0 0 0.0627451 0 0 0 0 0.439216 0 0 0 0 0.694118 0 0 0 0.2 0"/>
<feBlend mode="normal" in2="BackgroundImageFix" result="effect1_dropShadow_0_1548"/>
<feBlend mode="normal" in="SourceGraphic" in2="effect1_dropShadow_0_1548" result="shape"/>
</filter>
<filter id="filter6_d_0_1548" x="271" y="368" width="174" height="83" filterUnits="userSpaceOnUse" color-interpolation-filters="sRGB">
<feFlood flood-opacity="0" result="BackgroundImageFix"/>
<feColorMatrix in="SourceAlpha" type="matrix" values="0 0 0 0 0 0 0 0 0 0 0 0 0 0 0 0 0 0 127 0" result="hardAlpha"/>
<feOffset dy="4"/>
<feGaussianBlur stdDeviation="5"/>
<feColorMatrix type="matrix" values="0 0 0 0 0.435294 0 0 0 0 0.811765 0 0 0 0 0.592157 0 0 0 0.2 0"/>
<feBlend mode="normal" in2="BackgroundImageFix" result="effect1_dropShadow_0_1548"/>
<feBlend mode="normal" in="SourceGraphic" in2="effect1_dropShadow_0_1548" result="shape"/>
</filter>
<linearGradient id="paint0_linear_0_1548" x1="375.616" y1="-58.3187" x2="337.792" y2="612.507" gradientUnits="userSpaceOnUse">
<stop stop-color="#D1ECFF"/>
<stop offset="1" stop-color="#1070B1"/>
</linearGradient>
<linearGradient id="paint1_linear_0_1548" x1="559.735" y1="228.576" x2="507.964" y2="262.395" gradientUnits="userSpaceOnUse">
<stop stop-color="#FFF8E1"/>
<stop offset="1" stop-color="#FFCC80"/>
</linearGradient>
<linearGradient id="paint2_linear_0_1548" x1="585.978" y1="245.241" x2="585.978" y2="322.5" gradientUnits="userSpaceOnUse">
<stop stop-color="#AF6CED"/>
<stop offset="1" stop-color="#5E199D"/>
</linearGradient>
<linearGradient id="paint3_linear_0_1548" x1="633.728" y1="305.5" x2="633.728" y2="415.5" gradientUnits="userSpaceOnUse">
<stop stop-color="#EB5757"/>
<stop offset="1" stop-color="#872727"/>
</linearGradient>
<linearGradient id="paint4_linear_0_1548" x1="575.716" y1="235.146" x2="557.595" y2="242.755" gradientUnits="userSpaceOnUse">
<stop stop-color="#FFF8E1"/>
<stop offset="1" stop-color="#FFCC80"/>
</linearGradient>
<linearGradient id="paint5_linear_0_1548" x1="588.276" y1="295.08" x2="576.596" y2="316.359" gradientUnits="userSpaceOnUse">
<stop stop-color="#FFF8E1"/>
<stop offset="1" stop-color="#FFCC80"/>
</linearGradient>
<linearGradient id="paint6_linear_0_1548" x1="193.393" y1="335.155" x2="498.893" y2="368.655" gradientUnits="userSpaceOnUse">
<stop offset="0.127122" stop-color="white"/>
<stop offset="0.972261" stop-color="white" stop-opacity="0.8"/>
</linearGradient>
<clipPath id="clip0_0_1548">
<rect width="48" height="48" fill="white" transform="translate(473 158)"/>
</clipPath>
<clipPath id="clip1_0_1548">
<rect width="24" height="23.466" fill="white" transform="translate(415 17.822)"/>
</clipPath>
<clipPath id="clip2_0_1548">
<rect width="48" height="48" fill="white" transform="translate(296 299)"/>
</clipPath>
</defs>
</svg>
